Coordinates
version=1
nRows=10
nColumns=40
inDegrees=yes

Units are S.I. units (second, meters, Newtons, ...)
If the header above contains a line with 'inDegrees', this indicates whether rotational values are in degrees (yes) or radians (no).

endheader
time	pelvis_tilt	pelvis_list	pelvis_rotation	pelvis_tx	pelvis_ty	pelvis_tz	hip_flexion_r	hip_adduction_r	hip_rotation_r	knee_angle_r	knee_angle_r_beta	ankle_angle_r	subtalar_angle_r	mtp_angle_r	hip_flexion_l	hip_adduction_l	hip_rotation_l	knee_angle_l	knee_angle_l_beta	ankle_angle_l	subtalar_angle_l	mtp_angle_l	lumbar_extension	lumbar_bending	lumbar_rotation	arm_flex_r	arm_add_r	arm_rot_r	elbow_flex_r	pro_sup_r	wrist_flex_r	wrist_dev_r	arm_flex_l	arm_add_l	arm_rot_l	elbow_flex_l	pro_sup_l	wrist_flex_l	wrist_dev_l
      1.87000000	      0.69271695	    -11.13132842	     89.50859448	      0.20749406	      0.88557782	      0.21678620	    -11.35921922	      6.76722227	      8.09854313	     -0.82660875	     -0.01442704	     10.10661847	      0.00000000	      0.00000000	     36.19181043	      2.47793167	      5.19173960	      2.71680668	      0.04741722	     -3.57205937	      0.00000000	      0.00000000	      6.91201503	     -0.71116590	      5.47132402	      0.00000000	      0.00000000	      0.00000000	      0.00000000	      0.00000000	      0.00000000	      0.00000000	      0.00000000	      0.00000000	      0.00000000	      0.00000000	      0.00000000	      0.00000000	      0.00000000
      1.88000000	      0.38873001	    -11.30581928	     89.46049852	      0.20692958	      0.88521503	      0.20549751	    -11.48141462	      6.39153758	      7.71913033	     -0.11800174	     -0.00205952	      9.51822855	      0.00000000	      0.00000000	     35.92189157	      2.85606722	      4.95709609	      3.05825391	      0.05337660	     -4.89066484	      0.00000000	      0.00000000	      7.28680626	     -1.09130052	      5.48076059	      0.00000000	      0.00000000	      0.00000000	      0.00000000	      0.00000000	      0.00000000	      0.00000000	      0.00000000	      0.00000000	      0.00000000	      0.00000000	      0.00000000	      0.00000000	      0.00000000
      1.89000000	      0.04324343	    -11.53823479	     89.41622471	      0.20626463	      0.88498087	      0.19412342	    -11.47455163	      5.97209889	      7.29332115	      0.68433748	      0.01194394	      8.87855634	      0.00000000	     -0.00000000	     35.69795367	      3.27311398	      4.63114195	      3.39481027	      0.05925062	     -6.20875404	      0.00000000	     -0.00000000	      7.73806970	     -1.48067941	      5.48257773	     -0.00000000	      0.00000000	     -0.00000000	      0.00000000	      0.00000000	      0.00000000	     -0.00000000	      0.00000000	     -0.00000000	      0.00000000	      0.00000000	      0.00000000	      0.00000000	      0.00000000
      1.90000000	     -0.34004380	    -11.75134414	     89.34903895	      0.20571390	      0.88501707	      0.18261987	    -11.36428507	      5.51313156	      6.79465360	      1.68847953	      0.02946953	      8.09693287	      0.00000000	      0.00000000	     35.42661418	      3.69069290	      4.27592162	      3.71429274	      0.06482664	     -7.63251796	      0.00000000	      0.00000000	      8.21796182	     -1.96416704	      5.47285012	      0.00000000	      0.00000000	      0.00000000	      0.00000000	      0.00000000	      0.00000000	      0.00000000	      0.00000000	      0.00000000	      0.00000000	      0.00000000	      0.00000000	      0.00000000	      0.00000000
      1.91000000	     -0.75650077	    -11.97646677	     89.28008787	      0.20510655	      0.88527501	      0.17109077	    -11.12996784	      5.01299783	      6.19716878	      2.84781239	      0.04970370	      7.16925120	      0.00000000	      0.00000000	     35.14057791	      4.13383070	      3.82783309	      3.98267642	      0.06951082	     -9.01844041	      0.00000000	      0.00000000	      8.69551125	     -2.45927383	      5.47424888	      0.00000000	      0.00000000	      0.00000000	      0.00000000	      0.00000000	      0.00000000	      0.00000000	      0.00000000	      0.00000000	      0.00000000	      0.00000000	      0.00000000	      0.00000000	      0.00000000
      1.92000000	     -1.19317699	    -12.18750120	     89.19389213	      0.20450954	      0.88580423	      0.15955550	    -10.77131152	      4.47942155	      5.55354660	      4.21174632	      0.07350884	      6.08354857	      0.00000000	      0.00000000	     34.80939259	      4.57608613	      3.32405166	      4.20114888	      0.07332388	    -10.25329080	      0.00000000	      0.00000000	      9.16004660	     -2.97263888	      5.48383147	      0.00000000	      0.00000000	      0.00000000	      0.00000000	      0.00000000	      0.00000000	      0.00000000	      0.00000000	      0.00000000	      0.00000000	      0.00000000	      0.00000000	      0.00000000	      0.00000000
      1.93000000	     -1.63282288	    -12.37574717	     89.12517105	      0.20388774	      0.88658267	      0.14805418	    -10.28623022	      3.92912698	      4.73933359	      5.79046904	      0.10106275	      4.85843274	      0.00000000	      0.00000000	     34.44679548	      5.02803327	      2.87269907	      4.41407852	      0.07704020	    -11.39576771	      0.00000000	      0.00000000	      9.58359002	     -3.49621144	      5.50657615	      0.00000000	      0.00000000	      0.00000000	      0.00000000	      0.00000000	      0.00000000	      0.00000000	      0.00000000	      0.00000000	      0.00000000	      0.00000000	      0.00000000	      0.00000000	      0.00000000
      1.94000000	     -2.08534651	    -12.54806661	     89.03982428	      0.20326874	      0.88760496	      0.13661048	     -9.66599117	      3.33221768	      3.88532197	      7.59108535	      0.13248943	      3.47089544	      0.00000000	      0.00000000	     34.04803984	      5.48082547	      2.42190700	      4.60731450	      0.08041281	    -12.25335131	      0.00000000	      0.00000000	      9.98924320	     -4.02728619	      5.51706397	      0.00000000	      0.00000000	      0.00000000	      0.00000000	      0.00000000	      0.00000000	      0.00000000	      0.00000000	      0.00000000	      0.00000000	      0.00000000	      0.00000000	      0.00000000	      0.00000000
      1.95000000	     -2.54033420	    -12.69233465	     88.95137893	      0.20264229	      0.88886304	      0.12525521	     -8.90928614	      2.69905802	      2.96639376	      9.63296032	      0.16812687	      1.90704178	     -0.00000000	     -0.00000000	     33.60033507	      5.93378538	      1.98345798	      4.78115305	      0.08344686	    -12.81465536	     -0.00000000	     -0.00000000	     10.35065933	     -4.55479585	      5.53410214	      0.00000000	     -0.00000000	      0.00000000	      0.00000000	      0.00000000	     -0.00000000	     -0.00000000	     -0.00000000	      0.00000000	     -0.00000000	      0.00000000	      0.00000000	     -0.00000000	      0.00000000
      1.96000000	     -2.97865857	    -12.81443812	     88.88376817	      0.20197873	      0.89029482	      0.11401288	     -8.03438604	      2.04372005	      2.02758180	     11.87901718	      0.20732796	      0.22955726	      0.00000000	      0.00000000	     33.12914664	      6.39100028	      1.63947455	      4.97111402	      0.08676231	    -13.09925022	      0.00000000	      0.00000000	     10.67291877	     -5.07327975	      5.51220369	      0.00000000	      0.00000000	      0.00000000	      0.00000000	      0.00000000	      0.00000000	      0.00000000	      0.00000000	      0.00000000	      0.00000000	      0.00000000	      0.00000000	      0.00000000	      0.00000000
